<?xml version="1.0" encoding="UTF-8" standalone="no"?>
<svg
   width="595.28pt"
   height="119.994pt"
   viewBox="0 0 595.28 119.994"
   version="1.1"
   id="svg42"
   sodipodi:docname="open_hornet_horizontal_final.svg"
   inkscape:version="1.2.2 (732a01da63, 2022-12-09)"
   xmlns:inkscape="http://www.inkscape.org/namespaces/inkscape"
   xmlns:sodipodi="http://sodipodi.sourceforge.net/DTD/sodipodi-0.dtd"
   xmlns="http://www.w3.org/2000/svg"
   xmlns:svg="http://www.w3.org/2000/svg">
  <defs
     id="defs46" />
  <sodipodi:namedview
     id="namedview44"
     pagecolor="#505050"
     bordercolor="#ffffff"
     borderopacity="1"
     inkscape:showpageshadow="0"
     inkscape:pageopacity="0"
     inkscape:pagecheckerboard="1"
     inkscape:deskcolor="#505050"
     inkscape:document-units="pt"
     showgrid="false"
     inkscape:zoom="1.5244926"
     inkscape:cx="397.18133"
     inkscape:cy="80.026627"
     inkscape:window-width="3440"
     inkscape:window-height="1377"
     inkscape:window-x="1912"
     inkscape:window-y="1072"
     inkscape:window-maximized="1"
     inkscape:current-layer="svg42" />
  <path
     fill-rule="nonzero"
     fill="rgb(13.729858%, 12.159729%, 12.548828%)"
     fill-opacity="1"
     d="M 98.882813 51.894531 L 98.96875 51.863281 C 100.539063 51.34375 103.140625 50.683594 104.769531 50.402344 L 105.546875 50.261719 C 106.359375 50.121094 107.433594 50.042969 108.574219 50.042969 C 109.714844 50.042969 110.789063 50.121094 111.597656 50.261719 L 112.378906 50.402344 C 114.007813 50.6875 116.609375 51.34375 118.183594 51.863281 L 118.3125 51.910156 L 126.1875 34.304688 C 126.066406 34.300781 125.949219 34.273438 125.851563 34.226563 L 117.894531 30.96875 C 117.625 30.878906 117.359375 30.578125 117.304688 30.296875 L 115.097656 18.421875 C 115.042969 18.140625 114.769531 17.914063 114.484375 17.914063 L 102.664063 17.914063 C 102.382813 17.914063 102.105469 18.140625 102.054688 18.421875 L 99.84375 30.296875 C 99.792969 30.578125 99.527344 30.878906 99.257813 30.96875 L 91.296875 34.226563 C 91.261719 34.246094 91.226563 34.257813 91.183594 34.269531 Z M 98.882813 51.894531 "
     id="path2" />
  <path
     fill-rule="nonzero"
     fill="rgb(13.729858%, 12.159729%, 12.548828%)"
     fill-opacity="1"
     d="M 128.515625 54.421875 C 128.457031 54.691406 128.363281 54.953125 128.25 55.207031 L 128.976563 55.449219 L 141.855469 57.609375 C 143.472656 57.878906 146.085938 58.417969 147.679688 58.804688 L 155.332031 60.664063 L 155.332031 58.757813 C 155.332031 58.472656 155.101563 58.199219 154.824219 58.144531 L 143.339844 56.007813 C 143.0625 55.957031 142.753906 55.695313 142.660156 55.425781 L 139.140625 47.214844 C 139.007813 46.960938 139.035156 46.5625 139.199219 46.324219 L 145.886719 36.578125 C 146.046875 36.339844 146.015625 35.984375 145.816406 35.78125 L 137.457031 27.429688 C 137.257813 27.226563 136.902344 27.195313 136.664063 27.355469 L 133.949219 29.21875 Z M 128.515625 54.421875 "
     id="path4" />
  <path
     fill-rule="nonzero"
     fill="rgb(13.729858%, 12.159729%, 12.548828%)"
     fill-opacity="1"
     d="M 69.46875 58.804688 C 71.0625 58.417969 73.675781 57.878906 75.292969 57.609375 L 88.171875 55.449219 L 88.898438 55.207031 C 88.785156 54.953125 88.691406 54.695313 88.632813 54.421875 L 83.199219 29.214844 L 80.484375 27.351563 C 80.25 27.195313 79.890625 27.226563 79.691406 27.429688 L 71.335938 35.78125 C 71.136719 35.984375 71.101563 36.339844 71.261719 36.578125 L 77.953125 46.328125 C 78.113281 46.5625 78.136719 46.960938 78.007813 47.214844 L 74.488281 55.425781 C 74.394531 55.695313 74.089844 55.957031 73.808594 56.007813 L 62.328125 58.144531 C 62.046875 58.199219 61.816406 58.472656 61.816406 58.757813 L 61.816406 60.664063 Z M 69.46875 58.804688 "
     id="path6" />
  <path
     fill-rule="nonzero"
     fill="rgb(13.729858%, 12.159729%, 12.548828%)"
     fill-opacity="1"
     d="M 131.851563 71.84375 C 131.800781 72.046875 131.726563 72.273438 131.617188 72.519531 L 129.25 77.765625 C 128.519531 79.390625 126.738281 81.359375 125.199219 82.25 L 118.007813 86.425781 C 117.839844 86.523438 117.664063 86.609375 117.484375 86.675781 L 122.007813 97.601563 C 122.117188 97.863281 122.414063 97.972656 122.667969 97.84375 L 126.683594 95.703125 C 126.929688 95.554688 127.324219 95.570313 127.558594 95.730469 L 136.664063 101.980469 C 136.898438 102.140625 137.257813 102.109375 137.457031 101.90625 L 145.8125 93.550781 C 146.015625 93.347656 146.050781 92.992188 145.886719 92.757813 L 139.523438 83.488281 C 139.363281 83.253906 139.335938 82.851563 139.460938 82.59375 L 142.957031 73.859375 C 143.042969 73.589844 143.339844 73.324219 143.621094 73.273438 L 154.820313 71.191406 C 155.097656 71.136719 155.328125 70.863281 155.328125 70.578125 L 155.328125 69.175781 Z M 131.851563 71.84375 "
     id="path8" />
  <path
     fill-rule="nonzero"
     fill="rgb(13.729858%, 12.159729%, 12.548828%)"
     fill-opacity="1"
     d="M 99.140625 86.425781 L 91.945313 82.25 C 90.40625 81.359375 88.628906 79.390625 87.898438 77.765625 L 85.53125 72.519531 C 85.417969 72.273438 85.347656 72.046875 85.296875 71.84375 L 61.820313 69.175781 L 61.820313 70.574219 C 61.820313 70.863281 62.046875 71.136719 62.328125 71.191406 L 73.527344 73.273438 C 73.808594 73.324219 74.109375 73.589844 74.191406 73.859375 L 77.6875 82.59375 C 77.8125 82.851563 77.785156 83.253906 77.621094 83.488281 L 71.261719 92.757813 C 71.097656 92.988281 71.132813 93.347656 71.332031 93.550781 L 79.691406 101.90625 C 79.890625 102.109375 80.25 102.140625 80.484375 101.980469 L 89.589844 95.730469 C 89.824219 95.570313 90.21875 95.554688 90.460938 95.699219 L 94.480469 97.84375 C 94.734375 97.972656 95.03125 97.863281 95.140625 97.601563 L 99.660156 86.675781 C 99.484375 86.605469 99.308594 86.523438 99.140625 86.425781 "
     id="path10" />
  <path
     fill-rule="nonzero"
     fill="rgb(13.729858%, 12.159729%, 12.548828%)"
     fill-opacity="1"
     d="M 178.429688 62.0625 C 178.429688 62.0625 178.277344 61.503906 178.621094 61.402344 C 178.964844 61.296875 179.621094 61.710938 179.621094 61.710938 C 179.621094 61.710938 185.414063 65.953125 185.898438 66.261719 C 186.378906 66.574219 186.652344 67.332031 186.484375 67.503906 C 186.308594 67.675781 185.515625 67.503906 185.515625 67.503906 L 179.929688 63.574219 Z M 178.429688 62.0625 "
     id="path12" />
  <path
     fill-rule="nonzero"
     fill="rgb(13.729858%, 12.159729%, 12.548828%)"
     fill-opacity="1"
     d="M 138.457031 62.699219 L 146.273438 61.367188 C 146.273438 61.367188 146.179688 60.765625 145.671875 60.304688 C 145.167969 59.851563 141.539063 59.894531 140.847656 59.851563 C 140.15625 59.804688 124.117188 60.769531 124.117188 60.769531 C 124.117188 60.769531 129.492188 63.113281 129.632813 63.207031 C 129.769531 63.300781 138.457031 62.699219 138.457031 62.699219 "
     id="path14" />
  <path
     fill-rule="nonzero"
     fill="rgb(13.729858%, 12.159729%, 12.548828%)"
     fill-opacity="1"
     d="M 38.71875 62.0625 C 38.71875 62.0625 38.871094 61.503906 38.527344 61.402344 C 38.179688 61.296875 37.527344 61.710938 37.527344 61.710938 C 37.527344 61.710938 31.734375 65.953125 31.25 66.261719 C 30.769531 66.574219 30.492188 67.332031 30.664063 67.503906 C 30.839844 67.675781 31.632813 67.503906 31.632813 67.503906 L 37.214844 63.574219 Z M 38.71875 62.0625 "
     id="path16" />
  <path
     fill-rule="nonzero"
     fill="rgb(13.729858%, 12.159729%, 12.548828%)"
     fill-opacity="1"
     d="M 78.691406 62.699219 L 70.875 61.367188 C 70.875 61.367188 70.96875 60.765625 71.472656 60.304688 C 71.980469 59.851563 75.613281 59.894531 76.300781 59.851563 C 76.992188 59.804688 93.035156 60.769531 93.035156 60.769531 C 93.035156 60.769531 87.65625 63.113281 87.515625 63.207031 C 87.378906 63.300781 78.691406 62.699219 78.691406 62.699219 "
     id="path18" />
  <path
     fill-rule="nonzero"
     fill="rgb(13.729858%, 12.159729%, 12.548828%)"
     fill-opacity="1"
     d="M 160.203125 64.132813 L 160.296875 64.132813 L 177.988281 63.46875 L 178.820313 64.097656 L 163.417969 65.234375 L 129.582031 65.554688 C 129.585938 65.3125 129.585938 64.738281 129.585938 64.539063 C 129.585938 64.171875 129.464844 63.652344 129.320313 63.171875 Z M 124.09375 74.78125 C 123.089844 76.488281 121.054688 77.664063 119.195313 77.761719 C 119.113281 77.765625 119.035156 77.769531 118.953125 77.769531 C 118.222656 77.769531 117.53125 77.59375 116.953125 77.210938 C 116.949219 77.1875 116.949219 77.160156 116.949219 77.140625 C 116.957031 77.128906 116.96875 77.117188 116.980469 77.109375 C 117.804688 76.269531 119.003906 74.53125 119.335938 73.6875 C 119.632813 72.925781 120.144531 70.566406 120.40625 69.304688 C 121.789063 68.941406 123.0625 68.460938 123.582031 68.28125 C 124.65625 70.332031 125.40625 72.542969 124.09375 74.78125 M 114.980469 63.296875 C 114.632813 63.746094 113.289063 63.675781 112.632813 63.710938 C 111.996094 63.746094 108.734375 63.910156 108.578125 63.917969 L 108.570313 63.917969 C 108.414063 63.910156 105.152344 63.746094 104.515625 63.710938 C 103.859375 63.675781 102.515625 63.746094 102.167969 63.296875 C 101.824219 62.847656 101.46875 59.414063 101.617188 58.125 C 101.769531 56.839844 103.308594 54.449219 104.273438 53.679688 C 105.238281 52.910156 107.023438 52.0625 108.570313 52.058594 L 108.578125 52.058594 C 110.121094 52.0625 111.910156 52.910156 112.875 53.679688 C 113.839844 54.449219 115.378906 56.839844 115.53125 58.125 C 115.679688 59.414063 115.324219 62.847656 114.980469 63.296875 M 113.78125 87.996094 C 112.738281 89.65625 110.683594 91.5 108.578125 91.503906 L 108.570313 91.503906 C 106.464844 91.5 104.410156 89.65625 103.367188 87.996094 C 102.640625 86.835938 101.804688 84.214844 101.96875 82.921875 C 102.132813 81.625 102.792969 80.386719 103.667969 79.34375 C 104.546875 78.304688 106.929688 77.628906 108.574219 77.683594 C 110.214844 77.628906 112.601563 78.304688 113.476563 79.34375 C 114.355469 80.386719 115.015625 81.625 115.179688 82.921875 C 115.34375 84.214844 114.503906 86.835938 113.78125 87.996094 M 100.195313 77.210938 C 99.617188 77.59375 98.921875 77.769531 98.195313 77.769531 C 98.113281 77.769531 98.035156 77.765625 97.953125 77.761719 C 96.09375 77.664063 94.054688 76.488281 93.054688 74.78125 C 91.742188 72.542969 92.492188 70.332031 93.566406 68.28125 C 94.085938 68.460938 95.359375 68.941406 96.742188 69.304688 C 97.003906 70.566406 97.515625 72.925781 97.816406 73.6875 C 98.148438 74.539063 99.371094 76.3125 100.199219 77.140625 C 100.199219 77.160156 100.199219 77.1875 100.195313 77.210938 M 39.160156 63.46875 L 56.847656 64.132813 L 56.945313 64.132813 L 87.824219 63.171875 C 87.683594 63.652344 87.5625 64.171875 87.5625 64.539063 C 87.5625 64.738281 87.5625 65.3125 87.566406 65.554688 L 53.730469 65.234375 L 38.328125 64.097656 Z M 181.082031 63.929688 L 180.914063 63.941406 L 178.429688 62.0625 L 160.246094 62.746094 L 128.570313 61.761719 C 127.554688 61.261719 124.453125 59.734375 123.839844 59.390625 C 123.710938 59.320313 123.570313 59.214844 123.414063 59.09375 L 132.207031 29.417969 C 132.207031 29.417969 131.929688 29.054688 131.746094 29.054688 C 131.5625 29.054688 131.375 28.960938 131.285156 29.238281 C 131.199219 29.492188 122.476563 53.980469 121.339844 57.164063 C 121.332031 57.15625 121.320313 57.148438 121.3125 57.136719 C 120.851563 56.769531 118 56.632813 117.542969 56.632813 C 117.453125 56.632813 117.332031 56.636719 117.191406 56.648438 C 116.578125 55.339844 115.074219 53.617188 114.0625 52.988281 C 112.832031 52.214844 110.550781 51.367188 108.578125 51.367188 L 108.570313 51.367188 C 106.597656 51.367188 104.316406 52.214844 103.085938 52.988281 C 102.074219 53.617188 100.570313 55.339844 99.957031 56.648438 C 99.816406 56.636719 99.691406 56.632813 99.605469 56.632813 C 99.148438 56.632813 96.296875 56.769531 95.835938 57.136719 C 95.828125 57.148438 95.816406 57.15625 95.804688 57.164063 C 94.671875 53.980469 85.949219 29.492188 85.863281 29.238281 C 85.769531 28.960938 85.585938 29.054688 85.402344 29.054688 C 85.21875 29.054688 84.941406 29.417969 84.941406 29.417969 L 93.734375 59.09375 C 93.578125 59.214844 93.4375 59.320313 93.308594 59.390625 C 92.695313 59.734375 89.589844 61.261719 88.578125 61.761719 L 56.902344 62.746094 L 38.71875 62.0625 L 36.234375 63.941406 L 36.0625 63.929688 L 33.800781 65.640625 C 33.800781 65.640625 52.625 67.398438 52.558594 67.3125 C 52.492188 67.234375 83.722656 67.707031 88.050781 67.773438 C 88.527344 68.09375 89.945313 68.136719 91.214844 68.148438 C 90.304688 70.320313 89.972656 72.570313 91.53125 74.890625 C 91.550781 74.914063 91.566406 74.9375 91.585938 74.964844 C 91.667969 75.136719 91.757813 75.3125 91.859375 75.484375 C 93.128906 77.644531 95.734375 79.15625 98.195313 79.15625 C 98.9375 79.15625 99.617188 79.023438 100.222656 78.769531 C 100.25 79.46875 100.296875 80.304688 100.367188 81.148438 C 100.328125 81.324219 100.296875 81.5 100.273438 81.675781 C 100.066406 83.261719 101.121094 86.472656 102.03125 87.886719 C 103.339844 89.917969 105.921875 92.179688 108.570313 92.179688 L 108.578125 92.179688 C 111.222656 92.179688 113.804688 89.917969 115.117188 87.886719 C 116.027344 86.472656 117.082031 83.261719 116.875 81.675781 C 116.851563 81.5 116.816406 81.324219 116.78125 81.148438 C 116.851563 80.304688 116.898438 79.46875 116.925781 78.769531 C 117.53125 79.023438 118.210938 79.15625 118.953125 79.15625 C 121.414063 79.15625 124.019531 77.644531 125.289063 75.484375 C 125.390625 75.3125 125.480469 75.136719 125.5625 74.964844 C 125.578125 74.9375 125.597656 74.914063 125.617188 74.890625 C 127.171875 72.570313 126.84375 70.320313 125.929688 68.148438 C 127.199219 68.136719 128.621094 68.09375 129.097656 67.773438 C 133.421875 67.707031 164.652344 67.234375 164.589844 67.3125 C 164.519531 67.398438 183.34375 65.640625 183.34375 65.640625 Z M 181.082031 63.929688 "
     id="path20" />
  <path
     fill-rule="nonzero"
     fill="rgb(13.729858%, 12.159729%, 12.548828%)"
     fill-opacity="1"
     d="M 225.160156 61.664063 C 225.160156 52.992188 221.351563 48.65625 213.734375 48.65625 C 209.410156 48.65625 205.757813 50.558594 202.773438 54.359375 C 199.785156 58.164063 198.292969 62.890625 198.292969 68.53125 C 198.292969 72.769531 199.304688 76.070313 201.332031 78.445313 C 203.355469 80.820313 206.132813 82.007813 209.667969 82.007813 C 214.097656 82.007813 217.785156 80.089844 220.734375 76.25 C 223.6875 72.414063 225.160156 67.554688 225.160156 61.664063 M 228.714844 61.730469 C 228.714844 68.453125 226.722656 74.167969 222.742188 78.867188 C 219.3125 82.917969 214.867188 84.941406 209.410156 84.941406 C 204.8125 84.941406 201.226563 83.492188 198.652344 80.59375 C 196.082031 77.695313 194.792969 73.671875 194.792969 68.523438 C 194.792969 65.367188 195.351563 62.285156 196.46875 59.285156 C 197.582031 56.28125 199.101563 53.71875 201.023438 51.589844 C 204.589844 47.675781 208.878906 45.722656 213.890625 45.722656 C 218.660156 45.722656 222.320313 47.109375 224.878906 49.890625 C 227.433594 52.667969 228.714844 56.617188 228.714844 61.730469 "
     id="path22" />
  <path
     fill-rule="nonzero"
     fill="rgb(13.729858%, 12.159729%, 12.548828%)"
     fill-opacity="1"
     d="M 256.816406 56.375 C 256.816406 52.019531 253.953125 49.839844 248.222656 49.839844 L 241.582031 49.839844 L 238.546875 64.867188 L 246.625 64.867188 C 250.054688 64.867188 252.613281 64.199219 254.296875 62.859375 C 255.976563 61.523438 256.816406 59.359375 256.816406 56.375 M 260.164063 56.066406 C 260.164063 60.769531 258.566406 64.097656 255.375 66.054688 C 254.003906 66.875 252.304688 67.425781 250.28125 67.699219 C 248.976563 67.871094 246.867188 67.957031 243.949219 67.957031 L 237.875 67.957031 L 234.839844 83.8125 L 231.339844 83.8125 L 238.800781 46.800781 L 247.808594 46.800781 C 251.789063 46.800781 254.636719 47.367188 256.355469 48.5 C 258.894531 50.183594 260.164063 52.703125 260.164063 56.066406 "
     id="path24" />
  <path
     fill-rule="nonzero"
     fill="rgb(13.729858%, 12.159729%, 12.548828%)"
     fill-opacity="1"
     d="M 290.171875 46.800781 L 289.449219 49.839844 L 271.847656 49.839844 L 269.066406 63.066406 L 286.363281 63.066406 L 285.742188 66.105469 L 268.398438 66.105469 L 265.308594 80.875 L 285.230469 80.875 L 284.714844 83.8125 L 261.347656 83.8125 L 269.066406 46.800781 Z M 290.171875 46.800781 "
     id="path26" />
  <path
     fill-rule="nonzero"
     fill="rgb(13.729858%, 12.159729%, 12.548828%)"
     fill-opacity="1"
     d="M 325.53125 46.800781 L 317.808594 83.8125 L 313.640625 83.8125 L 300.722656 51.382813 L 294.082031 83.8125 L 290.53125 83.8125 L 298.355469 46.800781 L 302.214844 46.800781 L 315.390625 79.742188 L 322.183594 46.800781 Z M 325.53125 46.800781 "
     id="path28" />
  <path
     fill-rule="nonzero"
     fill="rgb(13.729858%, 12.159729%, 12.548828%)"
     fill-opacity="1"
     d="M 380.503906 46.800781 L 372.679688 83.8125 L 363.15625 83.8125 L 366.449219 68.214844 L 353.636719 68.214844 L 350.339844 83.8125 L 340.816406 83.8125 L 348.640625 46.800781 L 358.164063 46.800781 L 355.332031 60.183594 L 368.148438 60.183594 L 370.980469 46.800781 Z M 380.503906 46.800781 "
     id="path30" />
  <path
     fill-rule="nonzero"
     fill="rgb(13.729858%, 12.159729%, 12.548828%)"
     fill-opacity="1"
     d="M 410.253906 61.933594 C 410.253906 56.339844 407.679688 53.542969 402.53125 53.542969 C 399.339844 53.542969 396.75 55.019531 394.761719 57.972656 C 392.769531 60.921875 391.773438 64.527344 391.773438 68.78125 C 391.773438 71.457031 392.433594 73.542969 393.757813 75.035156 C 395.074219 76.527344 396.9375 77.273438 399.339844 77.273438 C 402.496094 77.273438 405.105469 75.804688 407.164063 72.871094 C 409.222656 69.9375 410.253906 66.292969 410.253906 61.933594 M 419.621094 62.65625 C 419.621094 69.074219 417.714844 74.382813 413.90625 78.585938 C 410.097656 82.789063 405.207031 84.890625 399.238281 84.890625 C 394.023438 84.890625 389.902344 83.382813 386.886719 80.363281 C 383.863281 77.34375 382.355469 73.222656 382.355469 68.007813 C 382.355469 61.59375 384.261719 56.296875 388.066406 52.128906 C 391.875 47.960938 396.800781 45.875 402.839844 45.875 C 408.058594 45.875 412.15625 47.367188 415.144531 50.351563 C 418.128906 53.339844 419.621094 57.441406 419.621094 62.65625 "
     id="path32" />
  <path
     fill-rule="nonzero"
     fill="rgb(13.729858%, 12.159729%, 12.548828%)"
     fill-opacity="1"
     d="M 448.136719 57.324219 C 448.136719 55.976563 447.636719 55.027344 446.644531 54.476563 C 445.785156 54.027344 444.308594 53.800781 442.214844 53.800781 L 436.964844 53.800781 L 435.113281 62.605469 L 440.980469 62.605469 C 445.75 62.605469 448.136719 60.84375 448.136719 57.324219 M 457.246094 56.890625 C 457.246094 61.933594 454.757813 65.332031 449.78125 67.082031 C 451.910156 68.179688 452.972656 69.964844 452.972656 72.433594 C 452.972656 73.429688 452.898438 74.742188 452.742188 76.375 C 452.585938 78.003906 452.511719 79.128906 452.511719 79.742188 C 452.511719 81.015625 453.027344 81.925781 454.054688 82.472656 L 454.054688 83.808594 L 443.554688 83.808594 C 443.316406 82.953125 443.195313 81.941406 443.195313 80.773438 C 443.195313 79.8125 443.289063 78.542969 443.476563 76.964844 C 443.664063 75.386719 443.761719 74.289063 443.761719 73.671875 C 443.761719 72.195313 443.28125 71.167969 442.320313 70.582031 C 441.496094 70.066406 440.035156 69.808594 437.945313 69.808594 L 433.570313 69.808594 L 430.582031 83.808594 L 421.472656 83.808594 L 429.296875 46.800781 L 442.628906 46.800781 C 447.570313 46.800781 451.242188 47.609375 453.644531 49.222656 C 456.042969 50.835938 457.246094 53.390625 457.246094 56.890625 "
     id="path34" />
  <path
     fill-rule="nonzero"
     fill="rgb(13.729858%, 12.159729%, 12.548828%)"
     fill-opacity="1"
     d="M 498.371094 46.800781 L 490.496094 83.8125 L 481.128906 83.8125 L 472.378906 59.515625 L 467.230469 83.8125 L 458.429688 83.8125 L 466.253906 46.800781 L 475.671875 46.800781 L 484.167969 71.097656 L 489.363281 46.800781 Z M 498.371094 46.800781 "
     id="path36" />
  <path
     fill-rule="nonzero"
     fill="rgb(13.729858%, 12.159729%, 12.548828%)"
     fill-opacity="1"
     d="M 531.570313 46.800781 L 530.027344 54.214844 L 513.710938 54.214844 L 512.269531 60.957031 L 527.246094 60.957031 L 525.703125 68.265625 L 510.722656 68.265625 L 509.027344 76.398438 L 526.269531 76.398438 L 524.675781 83.8125 L 498.113281 83.8125 L 505.988281 46.800781 Z M 531.570313 46.800781 "
     id="path38" />
  <path
     fill-rule="nonzero"
     fill="rgb(13.729858%, 12.159729%, 12.548828%)"
     fill-opacity="1"
     d="M 564.667969 46.800781 L 563.070313 54.367188 L 553.085938 54.367188 L 546.808594 83.8125 L 537.335938 83.8125 L 543.5625 54.367188 L 533.269531 54.367188 L 534.863281 46.800781 Z M 564.667969 46.800781 "
     id="path40" />
</svg>
