<?xml version="1.0" encoding="UTF-8" standalone="no"?>
<!-- Created with Inkscape (http://www.inkscape.org/) -->

<svg
   version="1.1"
   id="svg2"
   width="653.96802"
   height="472.61066"
   viewBox="0 0 653.96802 472.61066"
   sodipodi:docname="open_hornet_vertical_final.svg"
   inkscape:version="1.2.2 (732a01da63, 2022-12-09)"
   xmlns:inkscape="http://www.inkscape.org/namespaces/inkscape"
   xmlns:sodipodi="http://sodipodi.sourceforge.net/DTD/sodipodi-0.dtd"
   xmlns="http://www.w3.org/2000/svg"
   xmlns:svg="http://www.w3.org/2000/svg">
  <defs
     id="defs6">
    <clipPath
       clipPathUnits="userSpaceOnUse"
       id="clipPath18">
      <path
         d="M 0,354.458 H 490.476 V 0 H 0 Z"
         id="path16" />
    </clipPath>
  </defs>
  <sodipodi:namedview
     id="namedview4"
     pagecolor="#505050"
     bordercolor="#ffffff"
     borderopacity="1"
     inkscape:showpageshadow="0"
     inkscape:pageopacity="0"
     inkscape:pagecheckerboard="1"
     inkscape:deskcolor="#505050"
     showgrid="false"
     inkscape:zoom="1.9068211"
     inkscape:cx="326.98401"
     inkscape:cy="236.51931"
     inkscape:window-width="1920"
     inkscape:window-height="1017"
     inkscape:window-x="1912"
     inkscape:window-y="-8"
     inkscape:window-maximized="1"
     inkscape:current-layer="g10">
    <inkscape:page
       x="0"
       y="0"
       id="page8"
       width="653.96802"
       height="472.61066" />
  </sodipodi:namedview>
  <g
     id="g10"
     inkscape:groupmode="layer"
     inkscape:label="Page 1"
     transform="matrix(1.3333333,0,0,-1.3333333,0,472.61067)">
    <g
       id="g12">
      <g
         id="g14"
         clip-path="url(#clipPath18)">
        <g
           id="g20"
           transform="translate(217.3027,225.0234)">
          <path
             d="M 0,0 0.238,0.079 C 4.768,1.583 12.273,3.477 16.969,4.3 l 2.244,0.393 c 2.339,0.411 5.437,0.637 8.723,0.637 3.286,0 6.382,-0.226 8.72,-0.637 L 38.901,4.3 C 43.597,3.476 51.103,1.583 55.633,0.08 l 0.372,-0.124 22.71,50.75 c -0.351,0.013 -0.69,0.086 -0.967,0.224 l -22.947,9.392 c -0.778,0.258 -1.537,1.13 -1.692,1.938 l -6.371,34.235 c -0.148,0.808 -0.945,1.469 -1.767,1.469 H 10.903 c -0.82,0 -1.614,-0.661 -1.764,-1.469 L 2.768,62.26 C 2.615,61.452 1.858,60.58 1.077,60.322 L -21.871,50.93 c -0.101,-0.05 -0.21,-0.091 -0.324,-0.124 z"
             style="fill:#231f20;fill-opacity:1;fill-rule:nonzero;stroke:none"
             id="path22" />
        </g>
        <g
           id="g24"
           transform="translate(302.7227,217.7266)">
          <path
             d="M 0,0 C -0.168,-0.777 -0.432,-1.531 -0.764,-2.257 L 1.332,-2.953 38.46,-9.18 c 4.667,-0.782 12.199,-2.328 16.791,-3.446 l 22.057,-5.367 10e-4,5.496 c 0.002,0.824 -0.659,1.616 -1.463,1.77 l -33.102,6.155 c -0.805,0.151 -1.687,0.908 -1.957,1.685 L 30.639,20.784 c -0.379,0.732 -0.305,1.879 0.162,2.56 l 19.285,28.109 c 0.461,0.676 0.371,1.705 -0.211,2.287 l -24.09,24.088 c -0.58,0.582 -1.607,0.677 -2.283,0.211 l -7.834,-5.375 z"
             style="fill:#231f20;fill-opacity:1;fill-rule:nonzero;stroke:none"
             id="path26" />
        </g>
        <g
           id="g28"
           transform="translate(132.5015,205.1006)">
          <path
             d="m 0,0 c 4.594,1.118 12.127,2.664 16.792,3.446 l 37.123,6.226 2.099,0.697 c -0.331,0.727 -0.595,1.48 -0.763,2.257 l -15.67,72.671 -7.823,5.368 c -0.677,0.466 -1.707,0.371 -2.287,-0.211 L 5.381,66.366 C 4.801,65.784 4.705,64.755 5.17,64.079 L 24.458,35.97 c 0.463,-0.681 0.535,-1.828 0.158,-2.56 L 14.468,9.739 C 14.199,8.962 13.318,8.205 12.51,8.054 L -20.589,1.899 c -0.81,-0.154 -1.468,-0.946 -1.468,-1.768 v -5.498 z"
             style="fill:#231f20;fill-opacity:1;fill-rule:nonzero;stroke:none"
             id="path30" />
        </g>
        <g
           id="g32"
           transform="translate(312.3467,167.5098)">
          <path
             d="m 0,0 c -0.146,-0.593 -0.357,-1.237 -0.681,-1.953 l -6.822,-15.125 c -2.11,-4.676 -7.237,-10.355 -11.672,-12.928 l -20.738,-12.033 c -0.485,-0.281 -0.988,-0.522 -1.503,-0.717 L -28.38,-74.26 c 0.317,-0.761 1.168,-1.074 1.904,-0.701 l 11.579,6.181 c 0.707,0.413 1.839,0.379 2.517,-0.086 l 26.252,-18.02 c 0.678,-0.461 1.709,-0.366 2.287,0.211 l 24.092,24.088 c 0.582,0.583 0.676,1.613 0.211,2.29 L 22.12,-33.57 c -0.463,0.674 -0.549,1.831 -0.189,2.569 l 10.08,25.181 c 0.248,0.783 1.105,1.549 1.916,1.697 l 32.287,6.009 c 0.805,0.146 1.467,0.946 1.467,1.766 v 4.039 z"
             style="fill:#231f20;fill-opacity:1;fill-rule:nonzero;stroke:none"
             id="path34" />
        </g>
        <g
           id="g36"
           transform="translate(218.0425,125.4707)">
          <path
             d="m 0,0 -20.738,12.033 c -4.437,2.574 -9.563,8.253 -11.672,12.928 l -6.823,15.125 c -0.323,0.716 -0.535,1.359 -0.681,1.953 l -67.682,7.691 v -4.037 c 0,-0.821 0.66,-1.619 1.468,-1.767 l 32.287,-6.008 c 0.807,-0.147 1.671,-0.914 1.917,-1.697 l 10.08,-25.18 c 0.36,-0.738 0.275,-1.895 -0.192,-2.571 l -18.339,-26.726 c -0.463,-0.676 -0.369,-1.706 0.211,-2.29 l 24.092,-24.088 c 0.58,-0.577 1.609,-0.672 2.288,-0.211 l 26.252,18.02 c 0.677,0.463 1.81,0.499 2.516,0.086 l 11.578,-6.182 c 0.733,-0.374 1.589,-0.058 1.904,0.701 L 1.503,-0.717 C 0.988,-0.521 0.485,-0.281 0,0"
             style="fill:#231f20;fill-opacity:1;fill-rule:nonzero;stroke:none"
             id="path38" />
        </g>
        <g
           id="g40"
           transform="translate(446.623,195.707)">
          <path
             d="m 0,0 c 0,0 -0.439,1.604 0.555,1.902 0.994,0.299 2.883,-0.894 2.883,-0.894 0,0 16.697,-12.225 18.089,-13.119 1.391,-0.895 2.186,-3.082 1.69,-3.578 -0.498,-0.498 -2.783,0 -2.783,0 L 4.332,-4.359 Z"
             style="fill:#231f20;fill-opacity:1;fill-rule:nonzero;stroke:none"
             id="path42" />
        </g>
        <g
           id="g44"
           transform="translate(331.3867,193.8662)">
          <path
             d="m 0,0 22.529,3.843 c 0,0 -0.265,1.739 -1.722,3.056 C 19.35,8.216 8.881,8.084 6.893,8.216 4.904,8.35 -41.346,5.565 -41.346,5.565 c 0,0 15.504,-6.757 15.903,-7.023 C -25.047,-1.724 0,0 0,0"
             style="fill:#231f20;fill-opacity:1;fill-rule:nonzero;stroke:none"
             id="path46" />
        </g>
        <g
           id="g48"
           transform="translate(43.853,195.707)">
          <path
             d="M 0,0 C 0,0 0.438,1.604 -0.556,1.902 -1.55,2.201 -3.438,1.008 -3.438,1.008 c 0,0 -16.698,-12.225 -18.089,-13.119 -1.392,-0.895 -2.187,-3.082 -1.69,-3.578 0.497,-0.498 2.783,0 2.783,0 l 16.101,11.33 z"
             style="fill:#231f20;fill-opacity:1;fill-rule:nonzero;stroke:none"
             id="path50" />
        </g>
        <g
           id="g52"
           transform="translate(159.0884,193.8662)">
          <path
             d="m 0,0 -22.529,3.843 c 0,0 0.265,1.739 1.723,3.056 1.457,1.317 11.927,1.185 13.915,1.317 1.988,0.134 48.237,-2.651 48.237,-2.651 0,0 -15.504,-6.757 -15.902,-7.023 C 25.047,-1.724 0,0 0,0"
             style="fill:#231f20;fill-opacity:1;fill-rule:nonzero;stroke:none"
             id="path54" />
        </g>
        <g
           id="g56"
           transform="translate(394.0791,189.7354)">
          <path
             d="m 0,0 0.137,-0.004 0.137,0.005 50.994,1.92 2.398,-1.817 -44.399,-3.275 -97.54,-0.922 c 0.006,0.694 0.004,2.352 0.004,2.922 0,1.058 -0.351,2.557 -0.757,3.942 z m -104.104,-30.695 c -2.885,-4.923 -8.762,-8.322 -14.123,-8.594 h 0.001 c -0.23,-0.012 -0.461,-0.026 -0.689,-0.026 -2.104,0 -4.1,0.508 -5.775,1.615 -0.003,0.07 -0.006,0.143 -0.01,0.199 0.029,0.029 0.061,0.064 0.092,0.096 2.387,2.423 5.837,7.433 6.788,9.863 0.858,2.194 2.336,8.994 3.095,12.628 3.986,1.06 7.651,2.433 9.154,2.959 3.089,-5.914 5.252,-12.284 1.467,-18.74 m -26.274,33.102 c -0.994,-1.291 -4.87,-1.093 -6.758,-1.192 -1.843,-0.097 -11.243,-0.572 -11.695,-0.596 V 0.618 c 0,0 -0.007,0.001 -0.01,0.001 -0.003,0 -0.011,-0.001 -0.011,-0.001 v 0.001 c -0.451,0.024 -9.851,0.499 -11.694,0.596 -1.889,0.099 -5.765,-0.099 -6.759,1.192 -0.994,1.293 -2.021,11.199 -1.59,14.909 0.431,3.712 4.87,10.603 7.653,12.822 2.779,2.217 7.935,4.664 12.39,4.672 h 0.011 0.01 c 4.456,-0.008 9.612,-2.455 12.391,-4.672 2.783,-2.219 7.222,-9.11 7.652,-12.822 0.432,-3.71 -0.596,-13.616 -1.59,-14.909 m -3.453,-71.196 c -3.005,-4.787 -8.928,-10.107 -15.002,-10.117 v -10e-4 c -0.003,0 -0.007,10e-4 -0.009,10e-4 -0.002,0 -0.005,-10e-4 -0.008,-10e-4 v 10e-4 c -6.074,0.01 -11.998,5.33 -15.001,10.117 -2.091,3.332 -4.508,10.889 -4.034,14.624 0.475,3.733 2.373,7.307 4.905,10.31 2.528,3.002 9.403,4.95 14.138,4.792 4.737,0.158 11.609,-1.79 14.14,-4.792 2.53,-3.003 4.43,-6.577 4.904,-10.31 0.473,-3.735 -1.943,-11.292 -4.033,-14.624 m -39.16,31.089 c -1.676,-1.107 -3.672,-1.615 -5.775,-1.615 -0.228,0 -0.46,0.014 -0.69,0.026 h 10e-4 c -5.36,0.272 -11.238,3.672 -14.124,8.594 -3.784,6.455 -1.62,12.825 1.469,18.74 1.503,-0.527 5.168,-1.899 9.152,-2.959 0.76,-3.634 2.238,-10.434 3.097,-12.628 0.962,-2.461 4.489,-7.571 6.879,-9.958 -0.004,-0.057 -0.006,-0.129 -0.009,-0.2 m -175.959,39.621 50.993,-1.92 0.138,-0.005 0.137,0.004 89.026,2.771 c -0.407,-1.385 -0.758,-2.884 -0.758,-3.942 0,-0.57 -0.002,-2.228 0.005,-2.922 l -97.541,0.922 -44.399,3.275 z M 60.196,0.586 59.704,0.55 52.544,5.972 0.124,3.998 -91.19,6.842 c -2.928,1.436 -11.875,5.837 -13.644,6.831 -0.362,0.204 -0.778,0.502 -1.221,0.853 l 25.341,85.551 c 0,0 -0.795,1.051 -1.326,1.051 -0.531,0 -1.061,0.266 -1.326,-0.525 -0.246,-0.74 -25.398,-71.328 -28.67,-80.51 -0.027,0.023 -0.061,0.053 -0.086,0.073 -1.324,1.06 -9.542,1.459 -10.867,1.459 -0.248,0 -0.602,-0.019 -1.013,-0.049 -1.766,3.775 -6.1,8.74 -9.015,10.562 -3.545,2.217 -10.126,4.664 -15.811,4.672 h -0.014 -0.013 c -5.685,-0.008 -12.265,-2.455 -15.81,-4.672 -2.916,-1.822 -7.249,-6.787 -9.014,-10.562 -0.412,0.03 -0.767,0.049 -1.014,0.049 -1.326,0 -9.542,-0.399 -10.867,-1.459 -0.026,-0.02 -0.059,-0.05 -0.086,-0.073 -3.272,9.182 -28.423,79.77 -28.671,80.51 -0.265,0.791 -0.795,0.525 -1.326,0.525 -0.53,0 -1.324,-1.051 -1.324,-1.051 l 25.339,-85.551 c -0.443,-0.351 -0.858,-0.649 -1.221,-0.853 -1.768,-0.994 -10.716,-5.395 -13.644,-6.831 l -91.313,-2.844 -52.42,1.974 -7.161,-5.422 -0.491,0.036 -6.52,-4.937 c 0,0 54.267,-5.064 54.068,-4.818 -0.185,0.23 89.851,-1.132 102.323,-1.322 1.378,-0.922 5.467,-1.057 9.127,-1.088 -2.629,-6.263 -3.579,-12.744 0.91,-19.433 0.05,-0.075 0.102,-0.141 0.153,-0.216 0.236,-0.496 0.496,-0.993 0.788,-1.491 3.658,-6.239 11.168,-10.596 18.263,-10.596 2.141,0 4.1,0.392 5.847,1.122 0.08,-2.016 0.217,-4.432 0.42,-6.864 -0.109,-0.503 -0.206,-1.008 -0.272,-1.517 -0.597,-4.572 2.44,-13.822 5.069,-17.904 3.773,-5.858 11.217,-12.372 18.85,-12.384 v -0.001 c 0.004,0 0.008,0.001 0.011,0.001 0.003,0 0.007,-0.001 0.01,-0.001 v 0.001 c 7.634,0.012 15.077,6.526 18.852,12.384 2.628,4.082 5.664,13.332 5.068,17.904 -0.067,0.509 -0.163,1.014 -0.272,1.517 0.204,2.432 0.34,4.849 0.42,6.864 1.746,-0.73 3.707,-1.122 5.848,-1.122 7.095,0 14.604,4.357 18.263,10.596 0.292,0.498 0.551,0.995 0.788,1.491 0.051,0.075 0.102,0.142 0.152,0.216 4.489,6.689 3.539,13.17 0.91,19.433 3.659,0.031 7.748,0.166 9.126,1.088 12.47,0.19 102.507,1.552 102.323,1.322 -0.199,-0.246 54.069,4.818 54.069,4.818 z"
             style="fill:#231f20;fill-opacity:1;fill-rule:nonzero;stroke:none"
             id="path58" />
        </g>
        <g
           id="g60"
           transform="translate(91.8281,54.748)">
          <path
             d="m 0,0 c 0,8.674 -3.809,13.011 -11.427,13.011 -4.323,0 -7.978,-1.903 -10.963,-5.705 -2.985,-3.805 -4.478,-8.529 -4.478,-14.173 0,-4.235 1.012,-7.539 3.036,-9.914 2.025,-2.375 4.804,-3.562 8.339,-3.562 4.427,0 8.115,1.919 11.067,5.757 C -1.476,-10.748 0,-5.887 0,0 m 3.552,-0.063 c 0,-6.726 -1.991,-12.439 -5.971,-17.14 -3.432,-4.05 -7.875,-6.074 -13.331,-6.074 -4.599,0 -8.185,1.449 -10.758,4.349 -2.574,2.9 -3.86,6.923 -3.86,12.071 0,3.156 0.557,6.236 1.673,9.239 1.114,3.002 2.633,5.567 4.555,7.695 3.568,3.912 7.857,5.867 12.868,5.867 4.769,0 8.432,-1.389 10.989,-4.169 C 2.273,8.996 3.552,5.05 3.552,-0.063"
             style="fill:#231f20;fill-opacity:1;fill-rule:nonzero;stroke:none"
             id="path62" />
        </g>
        <g
           id="g64"
           transform="translate(123.4834,60.0381)">
          <path
             d="m 0,0 c 0,4.357 -2.866,6.537 -8.596,6.537 h -6.64 l -3.036,-15.03 h 8.081 c 3.43,0 5.987,0.669 7.669,2.008 C -0.841,-5.147 0,-2.985 0,0 m 3.346,0.309 c 0,-4.702 -1.596,-8.03 -4.787,-9.986 -1.373,-0.823 -3.072,-1.373 -5.096,-1.647 -1.305,-0.172 -3.415,-0.257 -6.331,-0.257 h -6.074 l -3.037,-15.854 h -3.5 l 7.464,37.009 h 9.007 c 3.981,0 6.828,-0.566 8.545,-1.699 C 2.076,6.193 3.346,3.671 3.346,0.309"
             style="fill:#231f20;fill-opacity:1;fill-rule:nonzero;stroke:none"
             id="path66" />
        </g>
        <g
           id="g68"
           transform="translate(156.8369,69.6123)">
          <path
             d="m 0,0 -0.721,-3.037 h -17.603 l -2.78,-13.229 h 17.295 l -0.618,-3.037 h -17.346 l -3.088,-14.772 h 19.92 l -0.515,-2.934 H -28.825 L -21.104,0 Z"
             style="fill:#231f20;fill-opacity:1;fill-rule:nonzero;stroke:none"
             id="path70" />
        </g>
        <g
           id="g72"
           transform="translate(192.1973,69.6123)">
          <path
             d="m 0,0 -7.721,-37.009 h -4.169 l -12.919,32.428 -6.64,-32.428 h -3.552 L -27.177,0 h 3.861 L -10.14,-32.942 -3.346,0 Z"
             style="fill:#231f20;fill-opacity:1;fill-rule:nonzero;stroke:none"
             id="path74" />
        </g>
        <g
           id="g76"
           transform="translate(247.168,69.6123)">
          <path
             d="m 0,0 -7.823,-37.009 h -9.523 l 3.295,15.596 h -12.817 l -3.294,-15.596 h -9.523 L -31.861,0 h 9.523 l -2.831,-13.383 h 12.816 L -9.522,0 Z"
             style="fill:#231f20;fill-opacity:1;fill-rule:nonzero;stroke:none"
             id="path78" />
        </g>
        <g
           id="g80"
           transform="translate(276.9189,54.4795)">
          <path
             d="m 0,0 c 0,5.593 -2.573,8.39 -7.721,8.39 -3.191,0 -5.782,-1.476 -7.772,-4.427 -1.99,-2.951 -2.986,-6.555 -2.986,-10.809 0,-2.676 0.661,-4.761 1.982,-6.254 1.32,-1.493 3.183,-2.239 5.585,-2.239 3.157,0 5.765,1.467 7.823,4.401 C -1.029,-8.004 0,-4.358 0,0 m 9.368,-0.721 c 0,-6.417 -1.905,-11.727 -5.714,-15.93 -3.808,-4.204 -8.698,-6.306 -14.669,-6.306 -5.216,0 -9.334,1.51 -12.353,4.529 -3.02,3.02 -4.529,7.138 -4.529,12.354 0,6.416 1.904,11.71 5.712,15.879 3.809,4.17 8.733,6.254 14.773,6.254 5.216,0 9.316,-1.493 12.302,-4.478 C 7.875,8.596 9.368,4.494 9.368,-0.721"
             style="fill:#231f20;fill-opacity:1;fill-rule:nonzero;stroke:none"
             id="path82" />
        </g>
        <g
           id="g84"
           transform="translate(314.8018,59.0908)">
          <path
             d="m 0,0 c 0,1.346 -0.498,2.295 -1.493,2.848 -0.858,0.449 -2.334,0.673 -4.426,0.673 h -5.251 l -1.852,-8.802 h 5.868 C -2.386,-5.281 0,-3.521 0,0 m 9.11,0.433 c 0,-5.044 -2.488,-8.442 -7.463,-10.192 2.127,-1.098 3.191,-2.883 3.191,-5.353 0,-0.995 -0.077,-2.308 -0.232,-3.938 -0.154,-1.63 -0.231,-2.754 -0.231,-3.371 0,-1.27 0.515,-2.18 1.544,-2.728 v -1.338 h -10.5 c -0.24,0.857 -0.36,1.87 -0.36,3.037 0,0.96 0.093,2.229 0.283,3.808 0.188,1.579 0.283,2.677 0.283,3.294 0,1.476 -0.481,2.505 -1.441,3.089 -0.824,0.515 -2.283,0.772 -4.375,0.772 h -4.375 l -2.986,-14 h -9.11 l 7.823,37.008 h 13.331 c 4.942,0 8.613,-0.806 11.016,-2.419 C 7.909,6.488 9.11,3.933 9.11,0.433"
             style="fill:#231f20;fill-opacity:1;fill-rule:nonzero;stroke:none"
             id="path86" />
        </g>
        <g
           id="g88"
           transform="translate(365.0381,69.6123)">
          <path
             d="m 0,0 -7.875,-37.009 h -9.368 l -8.75,24.295 -5.148,-24.295 h -8.801 L -32.118,0 h 9.419 L -14.206,-24.295 -9.008,0 Z"
             style="fill:#231f20;fill-opacity:1;fill-rule:nonzero;stroke:none"
             id="path90" />
        </g>
        <g
           id="g92"
           transform="translate(398.2373,69.6123)">
          <path
             d="m 0,0 -1.544,-7.412 h -16.317 l -1.441,-6.743 h 14.978 l -1.544,-7.309 h -14.979 l -1.698,-8.133 h 17.243 l -1.595,-7.412 h -26.56 L -25.582,0 Z"
             style="fill:#231f20;fill-opacity:1;fill-rule:nonzero;stroke:none"
             id="path94" />
        </g>
        <g
           id="g96"
           transform="translate(431.333,69.6123)">
          <path
             d="m 0,0 -1.596,-7.566 h -9.985 l -6.279,-29.443 h -9.472 l 6.228,29.443 H -31.397 L -29.802,0 Z"
             style="fill:#231f20;fill-opacity:1;fill-rule:nonzero;stroke:none"
             id="path98" />
        </g>
      </g>
    </g>
  </g>
</svg>
